<?xml version="1.0" standalone="no"?>
<svg xmlns="http://www.w3.org/2000/svg" viewBox="0 0 147.096 147.096" width="147.096" height="147.096"><rect x="22.60237062907163" y="22.60237062907163" transform="rotate(45, 73.548, 73.548)" fill="none" stroke="#6590da" stroke-width="3" width="98.89125874185675" height="98.89125874185675"></rect><g fill="#0b005d" color="#0b005d" transform="translate(56.094 64.096) scale(0.7272728)"><svg width="48.0" height="55.0" x="0.0" y="0.0" viewBox="0 0 48 55"><path fill="currentColor" fill-rule="evenodd" d="M29.875 44.156c-.59-.444-1.02-1.036-1.207-1.708-.409 1.46-1.96 2.547-3.813 2.547-1.956 0-3.577-1.212-3.87-2.796-.228 1.228-1.253 2.232-2.614 2.621l-2.38-3.157-1.513-2.007a5.158 5.158 0 0 0 1.48-.707c.288-.2.548-.428.775-.677.227.249.487.476.774.677.865.604 1.954.937 3.065.937 1.15 0 2.267-.353 3.147-.995.268-.196.51-.415.723-.653.213.238.455.457.723.653.88.642 1.998.995 3.147.995 1.52 0 2.903-.604 3.813-1.582.415.447.93.814 1.51 1.083l-1.838 2.33-1.922 2.439zm-4.169 5.286l-.06.077-1.909 2.42-4.731-6.277a5.075 5.075 0 0 0 1.255-.665c.269-.196.51-.415.724-.653.213.238.455.458.723.653.88.642 1.998.996 3.146.996 1.521 0 2.904-.604 3.813-1.582.179.191.375.369.588.53l-3.549 4.5zM13.013 33.548c.91.978 2.291 1.582 3.812 1.582 1.111 0 2.2-.333 3.065-.937.288-.2.547-.428.774-.677.228.25.487.477.774.677.865.605 1.954.937 3.065.937 1.15 0 2.267-.354 3.147-.996.269-.196.51-.415.723-.652.213.237.455.457.724.652.88.642 1.997.996 3.146.996 1.52 0 2.903-.604 3.813-1.582.384.413.852.758 1.38 1.02l-3.16 4.008c-1.068-.424-1.873-1.243-2.15-2.234-.409 1.46-1.96 2.546-3.813 2.546-1.955 0-3.576-1.211-3.87-2.795-.293 1.584-1.914 2.795-3.87 2.795-1.895 0-3.475-1.136-3.84-2.647-.301 1.254-1.442 2.25-2.905 2.552l-2.954-3.919a4.958 4.958 0 0 0 2.139-1.326zm-4.084-4.646c.91.978 2.292 1.582 3.812 1.582 1.111 0 2.2-.333 3.065-.937.288-.2.547-.428.774-.677.228.249.487.476.774.677.865.604 1.954.937 3.065.937 1.15 0 2.268-.354 3.147-.996.269-.196.51-.415.724-.653.213.238.454.458.723.653.88.642 1.997.996 3.146.996 1.521 0 2.903-.604 3.813-1.582.91.978 2.292 1.582 3.812 1.582 1.112 0 2.2-.333 3.065-.937.288-.2.547-.428.775-.677.227.249.486.476.774.677.214.15.444.283.683.399l-3.01 3.817c-1-.438-1.749-1.229-2.014-2.178-.408 1.46-1.96 2.547-3.813 2.547-1.955 0-3.576-1.211-3.87-2.795-.293 1.584-1.914 2.795-3.87 2.795-1.894 0-3.475-1.137-3.84-2.647-.363 1.51-1.943 2.647-3.838 2.647-1.852 0-3.404-1.087-3.812-2.547-.33 1.18-1.407 2.116-2.785 2.432L7.247 30.06a4.872 4.872 0 0 0 1.682-1.16zm6.5-7.594a.475.475 0 0 0-.57-.353c-3.75.883-9.23 4.784-10.288 5.556l-1.143-1.515c.386-.36.833-.747 1.334-1.148 2.873-2.306 7.48-5.1 12.007-6.066.496-.106.99-.19 1.481-.249a.474.474 0 0 0-.112-.941c-5.937.712-12.314 4.903-15.283 7.643L1.74 22.757c2.532-2.708 5.745-4.952 9.326-6.51 3.892-1.692 8.084-2.561 12.463-2.587.259.241.56.623.559 1.098-.001.83-.936 1.831-2.63 2.818-2.913 1.695-4.592 4.172-4.49 6.626.083 2.038 1.387 3.88 3.704 5.276a4.437 4.437 0 0 1-.254.008c-1.895 0-3.475-1.137-3.84-2.648-.363 1.51-1.943 2.648-3.838 2.648-1.852 0-3.404-1.087-3.813-2.547-.29 1.04-1.161 1.89-2.307 2.293l-1.48-1.963a58.459 58.459 0 0 1 4.799-3.114 36.61 36.61 0 0 1 1.584-.863c1.24-.634 2.482-1.162 3.552-1.413a.474.474 0 0 0 .354-.57zM10.032 9.946l2.215-.846 1.546 1.087a.474.474 0 0 0 .696-.173l.68-1.334 2.545.118 4.365 3.557c-4.041.19-7.918 1.083-11.547 2.66a30.588 30.588 0 0 0-4.162 2.206l3.662-7.275zm2.645-5.253l3.801 3.098-1.572-.073a.473.473 0 0 0-.445.258l-.57 1.12-1.305-.917a.475.475 0 0 0-.442-.056l-1.479.566 2.012-3.996zm11.418 7.626l-.112-.002c-.015-.047.042-.03.112.002zm-.936-6.995l-.001.05 1.396.03.915 1.485a.473.473 0 0 0 .7.122l1.429-1.144 2.389.24 2.685 3.328-.753.496-.764.503a.671.671 0 0 0 .739 1.122l.215-.142 1.388-.913 1.523.217.11 1.267a.474.474 0 0 0 .727.36l1.17-.746 1.508.918 1.326 3.968a30.926 30.926 0 0 0-2.379-1.22l-.14-.064c-4.044-1.83-8.59-2.822-13.175-2.882l-3.412-2.775-.625-.51 3.03-3.71zm3.116-3.82L29.15 5.07l-1.65-.165a.472.472 0 0 0-.344.102l-1.162.929-.768-1.25a.475.475 0 0 0-.394-.225l-.954-.02 2.396-2.937zm10.8 6.641l.999 2.99-.797-.498a.473.473 0 0 0-.506.002l-.763.486-.075-.863a.475.475 0 0 0-.405-.429l-.836-.119 2.383-1.569zm-7.38 21.075c-1.887-.73-2.555-1.437-2.567-1.45a.306.306 0 0 0-.456.41c.027.03.558.61 2.007 1.277-.17.019-.344.029-.52.029-1.955 0-3.576-1.212-3.87-2.796a3.036 3.036 0 0 1-.676 1.4c-1.086-.672-3.528-2.475-3.178-4.896.015-.099.033-.199.058-.3a.305.305 0 0 0-.066-.269.306.306 0 0 0-.53.128c-.008.03-.014.06-.02.09-.326 1.524.255 3.056 1.683 4.438.57.552 1.164.975 1.604 1.254-.24.2-.51.373-.805.516l-.028-.015c-2.66-1.269-4.11-2.957-4.188-4.882-.055-1.349.585-2.729 1.775-3.936.584-.592 1.3-1.142 2.13-1.626a11.118 11.118 0 0 0 1.75-1.229c.976-.858 1.468-1.734 1.465-2.616a2.37 2.37 0 0 0-.259-1.063c.53.022 1.06.056 1.588.102.339.275.817.771.876 1.422.06.664-.32 1.387-1.127 2.155a8.17 8.17 0 0 1-.402.358c-1.336 1.11-2.054 2.31-2.146 3.574-.02.273-.011.55.027.83.323 2.315 2.756 4.635 6.873 6.573a4.054 4.054 0 0 1-.998.522zm16.571-5.85l-.906 1.148c-3.668-3.527-9.49-6.29-13.386-7.207a.474.474 0 0 0-.218.924c.648.152 1.35.358 2.088.61 3.018 1.032 6.617 2.856 9.432 5.11.53.422 1.03.86 1.495 1.312l-1.066 1.35c-4.648-3.707-8.695-5.563-14.206-6.549a.475.475 0 0 0-.167.934c.643.115 1.262.241 1.864.38 4.085.942 7.31 2.478 10.91 5.193.334.251.671.514 1.013.786l-1.402 1.778c-1.061-.448-1.85-1.29-2.093-2.3-.364 1.51-1.944 2.647-3.84 2.647-1.851 0-3.403-1.087-3.812-2.547-.086.308-.223.6-.404.868-3.916-1.776-6.311-3.899-6.582-5.844-.159-1.141.415-2.264 1.706-3.339 1.403-1.167 2.058-2.356 1.947-3.533-.04-.419-.174-.79-.353-1.11a31.306 31.306 0 0 1 8.502 2.445c3.69 1.668 6.955 4.063 9.478 6.943zM26.28 0c.324.001.625.146.828.398l6.691 8.297 2.74-1.805c.278-.235.619-.324.945-.243.346.085.617.348.746.718l2.997 8.97-.002.007.128.378.004.003.286.856.17.118.67.464.585.43.061.046.082.06a27.845 27.845 0 0 1 4.44 4.223l.35.419-14.655 18.585-5.991 7.599-3.64 4.616-3.491-4.632-5.765-7.647L0 22.68l.368-.412a27.546 27.546 0 0 1 2.9-2.792l.008.012.616-.509c.064-.059.13-.111.198-.163a.671.671 0 0 1 .059-.175l.253-.503.064-.14.51-.998 6.67-13.248c.163-.3.45-.5.787-.548.323-.047.64.053.878.274l5.778 4.708 6.36-7.793c.203-.25.505-.393.826-.393z"></path></svg></g><path fill="#0b005d" fill-rule="nonzero" d="M14.78 0L14.76 1.01Q14.76 2.13 14.95 4.48L14.95 4.48Q14.36 4.76 13.55 4.73L13.55 4.73Q13.50 3.05 12.74 2.18Q11.98 1.32 10.39 1.32L10.39 1.32L8.90 1.32L8.90 15.46Q8.90 16.44 9.07 16.93Q9.24 17.42 9.70 17.63Q10.16 17.84 11.09 17.89L11.09 17.89Q11.23 18.28 11.23 19.10L11.23 19.10Q9.44 19.01 7.56 19.01L7.56 19.01Q5.46 19.01 3.89 19.10L3.89 19.10Q3.89 18.28 4.03 17.89L4.03 17.89Q4.96 17.84 5.43 17.63Q5.91 17.42 6.09 16.91Q6.27 16.41 6.27 15.46L6.27 15.46L6.27 1.32L4.84 1.32Q3.56 1.32 2.86 1.72Q2.16 2.13 1.86 2.81Q1.57 3.50 1.34 4.73L1.34 4.73Q0.42 4.73 0 4.48L0 4.48Q0.45 1.96 0.45 0L0.45 0Q2.02 0.08 7.59 0.08L7.59 0.08Q13.24 0.08 14.78 0L14.78 0Z" transform="translate(66.072, 37)"></path></svg>