<?xml version="1.0" standalone="no"?>
<svg xmlns="http://www.w3.org/2000/svg" viewBox="0 0 206.3 29" width="206.3" height="29"><path fill="#0b005d" fill-rule="nonzero" d="M12.67 0L12.65 0.86Q12.65 1.82 12.82 3.84L12.82 3.84Q12.31 4.08 11.62 4.06L11.62 4.06Q11.57 2.62 10.92 1.87Q10.27 1.13 8.90 1.13L8.90 1.13L7.63 1.13L7.63 13.25Q7.63 14.09 7.78 14.51Q7.92 14.93 8.32 15.11Q8.71 15.29 9.50 15.34L9.50 15.34Q9.62 15.67 9.62 16.37L9.62 16.37Q8.09 16.30 6.48 16.30L6.48 16.30Q4.68 16.30 3.34 16.37L3.34 16.37Q3.34 15.67 3.46 15.34L3.46 15.34Q4.25 15.29 4.66 15.11Q5.06 14.93 5.22 14.50Q5.38 14.06 5.38 13.25L5.38 13.25L5.38 1.13L4.15 1.13Q3.05 1.13 2.45 1.48Q1.85 1.82 1.60 2.41Q1.34 3.00 1.15 4.06L1.15 4.06Q0.36 4.06 0 3.84L0 3.84Q0.38 1.68 0.38 0L0.38 0Q1.73 0.07 6.50 0.07L6.50 0.07Q11.35 0.07 12.67 0L12.67 0ZM25.10 13.49Q25.75 14.45 26.44 14.84Q27.12 15.24 28.13 15.29L28.13 15.29Q28.13 15.98 28.03 16.30L28.03 16.30Q25.99 16.30 24.58 16.46L24.58 16.46Q24.41 16.18 23.93 15.46L23.93 15.46L22.85 13.70Q21.96 12.22 20.50 11.28L20.50 11.28L19.73 11.30L19.03 11.28L19.03 13.46Q19.03 14.26 19.15 14.64Q19.27 15.02 19.55 15.17Q19.82 15.31 20.40 15.34L20.40 15.34Q20.50 15.62 20.50 16.34L20.50 16.34Q19.61 16.30 17.88 16.30L17.88 16.30Q16.61 16.30 15.26 16.34L15.26 16.34Q15.26 15.67 15.38 15.34L15.38 15.34Q15.98 15.29 16.28 15.14Q16.58 15 16.70 14.64Q16.82 14.28 16.82 13.56L16.82 13.56L16.82 7.06Q16.82 6.02 16.54 5.69Q16.25 5.35 15.38 5.30L15.38 5.30Q15.26 4.94 15.26 4.25L15.26 4.25Q16.18 4.30 17.90 4.30L17.90 4.30L19.63 4.27Q20.88 4.22 21.53 4.22L21.53 4.22Q23.83 4.22 25.01 5.11Q26.18 6 26.18 7.39L26.18 7.39Q26.18 8.78 25.30 9.68Q24.41 10.58 22.82 10.90L22.82 10.90Q23.42 11.26 23.82 11.72Q24.22 12.19 25.10 13.49L25.10 13.49ZM19.94 10.10Q21.67 10.10 22.78 9.49Q23.88 8.88 23.88 7.70L23.88 7.70Q23.88 5.26 20.52 5.26L20.52 5.26Q19.75 5.26 19.03 5.40L19.03 5.40L19.03 10.03Q19.54 10.10 19.94 10.10L19.94 10.10ZM43.30 15.26Q43.42 15.62 43.42 16.34L43.42 16.34Q42.46 16.30 40.94 16.30L40.94 16.30Q39.36 16.30 38.40 16.34L38.40 16.34Q38.40 15.60 38.54 15.26L38.54 15.26Q39.10 15.19 39.32 15.06Q39.55 14.93 39.55 14.66L39.55 14.66Q39.55 14.45 39.31 13.92L39.31 13.92L38.83 12.89Q35.38 12.89 33.38 13.01L33.38 13.01L33.12 13.63Q32.88 14.18 32.88 14.50L32.88 14.50Q32.88 15.17 33.86 15.26L33.86 15.26Q34.01 15.70 34.01 16.34L34.01 16.34Q33.10 16.30 32.02 16.30L32.02 16.30Q31.08 16.30 30.31 16.34L30.31 16.34Q30.31 15.77 30.46 15.26L30.46 15.26Q30.98 15.17 31.27 14.82Q31.56 14.47 32.04 13.42L32.04 13.42L36.17 4.27Q36.62 4.18 37.13 4.18L37.13 4.18L41.54 13.34Q42.07 14.45 42.44 14.83Q42.82 15.22 43.30 15.26L43.30 15.26ZM33.86 11.90L38.35 11.90L36.91 8.88Q36.29 7.61 36.05 6.86L36.05 6.86Q35.86 7.46 35.58 8.05Q35.30 8.64 35.23 8.78L35.23 8.78L33.86 11.90ZM55.54 4.30Q56.47 4.30 57.67 4.25L57.67 4.25Q57.67 4.90 57.55 5.28L57.55 5.28Q56.59 5.45 55.80 7.27L55.80 7.27Q53.90 11.45 51.38 16.32L51.38 16.32Q51.02 16.44 50.45 16.44L50.45 16.44Q48.22 11.59 46.08 7.46L46.08 7.46Q45.55 6.41 45.32 6.04Q45.10 5.66 44.87 5.50Q44.64 5.33 44.26 5.28L44.26 5.28Q44.14 4.94 44.14 4.25L44.14 4.25Q45.29 4.30 46.78 4.30L46.78 4.30Q47.71 4.30 49.44 4.25L49.44 4.25Q49.44 4.85 49.32 5.28L49.32 5.28Q48.70 5.33 48.40 5.47Q48.10 5.62 48.10 5.95L48.10 5.95Q48.10 6.38 48.55 7.20L48.55 7.20Q50.23 10.32 51.55 13.34L51.55 13.34Q53.52 9.50 54.50 7.30L54.50 7.30Q54.79 6.65 54.79 6.19L54.79 6.19Q54.79 5.38 53.78 5.28L53.78 5.28Q53.66 4.94 53.66 4.25L53.66 4.25Q54.86 4.30 55.54 4.30L55.54 4.30ZM70.37 12.89Q71.02 13.01 71.42 13.42L71.42 13.42Q70.99 14.54 70.78 16.32L70.78 16.32L66.14 16.30Q62.69 16.30 60.58 16.34L60.58 16.34Q60.58 15.60 60.70 15.26L60.70 15.26Q61.30 15.22 61.60 15.07Q61.90 14.93 62.02 14.54Q62.14 14.16 62.14 13.39L62.14 13.39L62.14 7.08Q62.14 6.38 62.00 6.02Q61.87 5.66 61.57 5.52Q61.27 5.38 60.70 5.33L60.70 5.33Q60.58 4.97 60.58 4.25L60.58 4.25Q62.30 4.30 64.34 4.30L64.34 4.30Q68.76 4.30 70.25 4.25L70.25 4.25Q70.51 6.50 70.70 7.22L70.70 7.22Q70.30 7.49 69.62 7.49L69.62 7.49Q69.53 6.48 68.80 5.90Q68.06 5.33 66.22 5.33L66.22 5.33L64.34 5.33L64.34 9.74L65.54 9.74Q66.82 9.74 67.31 9.46Q67.80 9.17 67.82 8.40L67.82 8.40Q68.35 8.23 68.93 8.23L68.93 8.23Q68.88 8.83 68.88 10.25L68.88 10.25Q68.88 11.78 68.93 12.34L68.93 12.34Q68.28 12.34 67.87 12.19L67.87 12.19Q67.80 11.40 67.31 11.11Q66.82 10.82 65.54 10.82L65.54 10.82L64.34 10.82L64.34 13.34Q64.34 14.11 64.50 14.51Q64.66 14.90 65.05 15.06Q65.45 15.22 66.24 15.22L66.24 15.22L66.38 15.22Q67.78 15.22 68.53 14.98Q69.29 14.74 69.66 14.27Q70.03 13.80 70.37 12.89L70.37 12.89ZM80.52 15.22Q81.65 15.22 82.31 14.99Q82.97 14.76 83.36 14.27Q83.76 13.78 84.12 12.89L84.12 12.89Q84.77 13.01 85.18 13.42L85.18 13.42Q84.74 14.54 84.53 16.32L84.53 16.32L80.28 16.30Q76.82 16.30 74.71 16.34L74.71 16.34Q74.71 15.60 74.83 15.26L74.83 15.26Q75.41 15.22 75.72 15.07Q76.03 14.93 76.16 14.54Q76.30 14.16 76.30 13.39L76.30 13.39L76.30 7.08Q76.30 6.38 76.16 6.02Q76.03 5.66 75.73 5.52Q75.43 5.38 74.83 5.33L74.83 5.33Q74.74 4.94 74.74 4.25L74.74 4.25Q76.46 4.30 77.40 4.30L77.40 4.30Q78.38 4.30 80.06 4.25L80.06 4.25Q80.06 4.97 79.94 5.33L79.94 5.33Q79.10 5.38 78.80 5.72Q78.50 6.07 78.50 7.10L78.50 7.10L78.50 13.34Q78.50 14.11 78.65 14.51Q78.79 14.90 79.19 15.06Q79.58 15.22 80.38 15.22L80.38 15.22L80.52 15.22ZM101.09 13.25Q101.09 14.45 101.44 14.87Q101.78 15.29 102.74 15.34L102.74 15.34Q102.86 15.67 102.86 16.37L102.86 16.37Q101.42 16.30 99.96 16.30L99.96 16.30Q98.28 16.30 97.06 16.37L97.06 16.37Q97.06 15.67 97.18 15.34L97.18 15.34Q98.14 15.29 98.48 14.87Q98.83 14.45 98.83 13.25L98.83 13.25L98.83 8.50Q93.34 8.50 91.51 8.64L91.51 8.64L91.51 13.25Q91.51 14.45 91.86 14.87Q92.21 15.29 93.17 15.34L93.17 15.34Q93.29 15.67 93.29 16.37L93.29 16.37Q91.85 16.30 90.38 16.30L90.38 16.30Q88.70 16.30 87.48 16.37L87.48 16.37Q87.48 15.67 87.60 15.34L87.60 15.34Q88.56 15.29 88.91 14.87Q89.26 14.45 89.26 13.25L89.26 13.25L89.26 3.12Q89.26 1.92 88.91 1.50Q88.56 1.08 87.60 1.03L87.60 1.03Q87.48 0.70 87.48 0L87.48 0Q88.80 0.07 90.38 0.07L90.38 0.07Q91.85 0.07 93.29 0L93.29 0Q93.29 0.70 93.17 1.03L93.17 1.03Q92.21 1.08 91.86 1.50Q91.51 1.92 91.51 3.12L91.51 3.12L91.51 7.46L98.83 7.46L98.83 3.12Q98.83 1.92 98.48 1.50Q98.14 1.08 97.18 1.03L97.18 1.03Q97.06 0.70 97.06 0L97.06 0Q98.38 0.07 99.96 0.07L99.96 0.07Q101.42 0.07 102.86 0L102.86 0Q102.86 0.70 102.74 1.03L102.74 1.03Q101.78 1.08 101.44 1.50Q101.09 1.92 101.09 3.12L101.09 3.12L101.09 13.25ZM112.51 16.51Q110.45 16.51 108.86 15.74Q107.28 14.98 106.40 13.58Q105.53 12.19 105.53 10.34L105.53 10.34Q105.53 8.52 106.40 7.10Q107.28 5.69 108.88 4.91Q110.47 4.13 112.56 4.13L112.56 4.13Q114.62 4.13 116.21 4.90Q117.79 5.66 118.67 7.07Q119.54 8.47 119.54 10.30L119.54 10.30Q119.54 12.14 118.67 13.55Q117.79 14.95 116.20 15.73Q114.60 16.51 112.51 16.51L112.51 16.51ZM112.85 15.41Q114.79 15.41 115.93 14.11Q117.07 12.82 117.07 10.66L117.07 10.66Q117.07 9.10 116.45 7.86Q115.82 6.62 114.71 5.93Q113.59 5.23 112.20 5.23L112.20 5.23Q110.26 5.23 109.13 6.54Q108.00 7.85 108.00 9.98L108.00 9.98Q108.00 11.59 108.62 12.83Q109.25 14.06 110.35 14.74Q111.46 15.41 112.85 15.41L112.85 15.41ZM128.95 16.46Q126.98 16.46 125.84 16.00Q124.70 15.53 124.21 14.58Q123.72 13.63 123.72 12.12L123.72 12.12L123.72 7.13Q123.72 6.38 123.62 6.02Q123.53 5.66 123.28 5.53Q123.02 5.40 122.47 5.33L122.47 5.33Q122.35 4.94 122.35 4.25L122.35 4.25Q123.50 4.30 124.85 4.30L124.85 4.30Q126.19 4.30 127.49 4.25L127.49 4.25Q127.49 4.87 127.39 5.33L127.39 5.33Q126.72 5.40 126.43 5.53Q126.14 5.66 126.04 6.01Q125.93 6.36 125.93 7.13L125.93 7.13L125.93 11.83Q125.93 13.54 126.71 14.40Q127.49 15.26 129.41 15.26L129.41 15.26Q129.98 15.26 130.58 15.08Q131.18 14.90 131.62 14.54L131.62 14.54Q132.07 14.14 132.28 13.45Q132.48 12.77 132.48 11.42L132.48 11.42L132.48 7.66Q132.48 6.74 132.37 6.28Q132.26 5.81 131.95 5.60Q131.64 5.40 131.02 5.33L131.02 5.33Q130.92 4.75 130.92 4.25L130.92 4.25Q131.88 4.30 132.94 4.30L132.94 4.30Q133.87 4.30 134.98 4.25L134.98 4.25Q134.98 4.85 134.86 5.33L134.86 5.33Q134.11 5.40 133.86 5.86Q133.61 6.31 133.61 7.56L133.61 7.56L133.61 11.45Q133.61 13.06 133.36 13.98Q133.10 14.90 132.38 15.48L132.38 15.48Q131.18 16.46 128.95 16.46L128.95 16.46ZM143.26 16.46Q141.94 16.46 140.87 16.20Q139.80 15.94 138.55 15.41L138.55 15.41Q138.82 13.80 138.74 12.62L138.74 12.62Q139.27 12.46 140.04 12.46L140.04 12.46Q140.09 13.94 140.99 14.62Q141.89 15.29 143.52 15.29L143.52 15.29Q144.91 15.29 145.72 14.86Q146.52 14.42 146.52 13.70L146.52 13.70Q146.52 13.20 146.12 12.83Q145.73 12.46 145.16 12.20Q144.60 11.95 143.52 11.57L143.52 11.57Q142.03 11.06 141.13 10.62Q140.23 10.18 139.57 9.40Q138.91 8.62 138.91 7.44L138.91 7.44Q138.91 5.83 140.12 4.99Q141.34 4.15 143.45 4.15L143.45 4.15Q144.58 4.15 145.69 4.37Q146.81 4.58 147.43 4.92L147.43 4.92Q147.41 5.18 147.41 5.74L147.41 5.74Q147.41 6.82 147.55 7.44L147.55 7.44Q147.05 7.70 146.23 7.70L146.23 7.70Q145.90 6.34 145.14 5.80Q144.38 5.26 143.28 5.26L143.28 5.26Q142.22 5.26 141.56 5.62Q140.90 5.98 140.90 6.67L140.90 6.67Q140.90 7.46 141.67 7.94Q142.44 8.42 144.07 9L144.07 9Q145.46 9.48 146.35 9.91Q147.24 10.34 147.86 11.08Q148.49 11.81 148.49 12.91L148.49 12.91Q148.49 14.50 147.19 15.48Q145.90 16.46 143.26 16.46L143.26 16.46ZM161.86 12.89Q162.50 13.01 162.91 13.42L162.91 13.42Q162.48 14.54 162.26 16.32L162.26 16.32L157.63 16.30Q154.18 16.30 152.06 16.34L152.06 16.34Q152.06 15.60 152.18 15.26L152.18 15.26Q152.78 15.22 153.08 15.07Q153.38 14.93 153.50 14.54Q153.62 14.16 153.62 13.39L153.62 13.39L153.62 7.08Q153.62 6.38 153.49 6.02Q153.36 5.66 153.06 5.52Q152.76 5.38 152.18 5.33L152.18 5.33Q152.06 4.97 152.06 4.25L152.06 4.25Q153.79 4.30 155.83 4.30L155.83 4.30Q160.25 4.30 161.74 4.25L161.74 4.25Q162 6.50 162.19 7.22L162.19 7.22Q161.78 7.49 161.11 7.49L161.11 7.49Q161.02 6.48 160.28 5.90Q159.55 5.33 157.70 5.33L157.70 5.33L155.83 5.33L155.83 9.74L157.03 9.74Q158.30 9.74 158.80 9.46Q159.29 9.17 159.31 8.40L159.31 8.40Q159.84 8.23 160.42 8.23L160.42 8.23Q160.37 8.83 160.37 10.25L160.37 10.25Q160.37 11.78 160.42 12.34L160.42 12.34Q159.77 12.34 159.36 12.19L159.36 12.19Q159.29 11.40 158.80 11.11Q158.30 10.82 157.03 10.82L157.03 10.82L155.83 10.82L155.83 13.34Q155.83 14.11 155.99 14.51Q156.14 14.90 156.54 15.06Q156.94 15.22 157.73 15.22L157.73 15.22L157.87 15.22Q159.26 15.22 160.02 14.98Q160.78 14.74 161.15 14.27Q161.52 13.80 161.86 12.89L161.86 12.89Z" transform="translate(0, 6.244)"></path><line x1="171.912" y1="2%" x2="171.912" y2="98%" stroke="#0b005d" stroke-linecap="round"></line><g fill="#6590da" color="#6590da" transform="translate(180.912 0) scale(0.5272728)"><svg width="48.0" height="55.0" x="0.0" y="0.0" viewBox="0 0 48 55"><path fill="currentColor" fill-rule="evenodd" d="M29.875 44.156c-.59-.444-1.02-1.036-1.207-1.708-.409 1.46-1.96 2.547-3.813 2.547-1.956 0-3.577-1.212-3.87-2.796-.228 1.228-1.253 2.232-2.614 2.621l-2.38-3.157-1.513-2.007a5.158 5.158 0 0 0 1.48-.707c.288-.2.548-.428.775-.677.227.249.487.476.774.677.865.604 1.954.937 3.065.937 1.15 0 2.267-.353 3.147-.995.268-.196.51-.415.723-.653.213.238.455.457.723.653.88.642 1.998.995 3.147.995 1.52 0 2.903-.604 3.813-1.582.415.447.93.814 1.51 1.083l-1.838 2.33-1.922 2.439zm-4.169 5.286l-.06.077-1.909 2.42-4.731-6.277a5.075 5.075 0 0 0 1.255-.665c.269-.196.51-.415.724-.653.213.238.455.458.723.653.88.642 1.998.996 3.146.996 1.521 0 2.904-.604 3.813-1.582.179.191.375.369.588.53l-3.549 4.5zM13.013 33.548c.91.978 2.291 1.582 3.812 1.582 1.111 0 2.2-.333 3.065-.937.288-.2.547-.428.774-.677.228.25.487.477.774.677.865.605 1.954.937 3.065.937 1.15 0 2.267-.354 3.147-.996.269-.196.51-.415.723-.652.213.237.455.457.724.652.88.642 1.997.996 3.146.996 1.52 0 2.903-.604 3.813-1.582.384.413.852.758 1.38 1.02l-3.16 4.008c-1.068-.424-1.873-1.243-2.15-2.234-.409 1.46-1.96 2.546-3.813 2.546-1.955 0-3.576-1.211-3.87-2.795-.293 1.584-1.914 2.795-3.87 2.795-1.895 0-3.475-1.136-3.84-2.647-.301 1.254-1.442 2.25-2.905 2.552l-2.954-3.919a4.958 4.958 0 0 0 2.139-1.326zm-4.084-4.646c.91.978 2.292 1.582 3.812 1.582 1.111 0 2.2-.333 3.065-.937.288-.2.547-.428.774-.677.228.249.487.476.774.677.865.604 1.954.937 3.065.937 1.15 0 2.268-.354 3.147-.996.269-.196.51-.415.724-.653.213.238.454.458.723.653.88.642 1.997.996 3.146.996 1.521 0 2.903-.604 3.813-1.582.91.978 2.292 1.582 3.812 1.582 1.112 0 2.2-.333 3.065-.937.288-.2.547-.428.775-.677.227.249.486.476.774.677.214.15.444.283.683.399l-3.01 3.817c-1-.438-1.749-1.229-2.014-2.178-.408 1.46-1.96 2.547-3.813 2.547-1.955 0-3.576-1.211-3.87-2.795-.293 1.584-1.914 2.795-3.87 2.795-1.894 0-3.475-1.137-3.84-2.647-.363 1.51-1.943 2.647-3.838 2.647-1.852 0-3.404-1.087-3.812-2.547-.33 1.18-1.407 2.116-2.785 2.432L7.247 30.06a4.872 4.872 0 0 0 1.682-1.16zm6.5-7.594a.475.475 0 0 0-.57-.353c-3.75.883-9.23 4.784-10.288 5.556l-1.143-1.515c.386-.36.833-.747 1.334-1.148 2.873-2.306 7.48-5.1 12.007-6.066.496-.106.99-.19 1.481-.249a.474.474 0 0 0-.112-.941c-5.937.712-12.314 4.903-15.283 7.643L1.74 22.757c2.532-2.708 5.745-4.952 9.326-6.51 3.892-1.692 8.084-2.561 12.463-2.587.259.241.56.623.559 1.098-.001.83-.936 1.831-2.63 2.818-2.913 1.695-4.592 4.172-4.49 6.626.083 2.038 1.387 3.88 3.704 5.276a4.437 4.437 0 0 1-.254.008c-1.895 0-3.475-1.137-3.84-2.648-.363 1.51-1.943 2.648-3.838 2.648-1.852 0-3.404-1.087-3.813-2.547-.29 1.04-1.161 1.89-2.307 2.293l-1.48-1.963a58.459 58.459 0 0 1 4.799-3.114 36.61 36.61 0 0 1 1.584-.863c1.24-.634 2.482-1.162 3.552-1.413a.474.474 0 0 0 .354-.57zM10.032 9.946l2.215-.846 1.546 1.087a.474.474 0 0 0 .696-.173l.68-1.334 2.545.118 4.365 3.557c-4.041.19-7.918 1.083-11.547 2.66a30.588 30.588 0 0 0-4.162 2.206l3.662-7.275zm2.645-5.253l3.801 3.098-1.572-.073a.473.473 0 0 0-.445.258l-.57 1.12-1.305-.917a.475.475 0 0 0-.442-.056l-1.479.566 2.012-3.996zm11.418 7.626l-.112-.002c-.015-.047.042-.03.112.002zm-.936-6.995l-.001.05 1.396.03.915 1.485a.473.473 0 0 0 .7.122l1.429-1.144 2.389.24 2.685 3.328-.753.496-.764.503a.671.671 0 0 0 .739 1.122l.215-.142 1.388-.913 1.523.217.11 1.267a.474.474 0 0 0 .727.36l1.17-.746 1.508.918 1.326 3.968a30.926 30.926 0 0 0-2.379-1.22l-.14-.064c-4.044-1.83-8.59-2.822-13.175-2.882l-3.412-2.775-.625-.51 3.03-3.71zm3.116-3.82L29.15 5.07l-1.65-.165a.472.472 0 0 0-.344.102l-1.162.929-.768-1.25a.475.475 0 0 0-.394-.225l-.954-.02 2.396-2.937zm10.8 6.641l.999 2.99-.797-.498a.473.473 0 0 0-.506.002l-.763.486-.075-.863a.475.475 0 0 0-.405-.429l-.836-.119 2.383-1.569zm-7.38 21.075c-1.887-.73-2.555-1.437-2.567-1.45a.306.306 0 0 0-.456.41c.027.03.558.61 2.007 1.277-.17.019-.344.029-.52.029-1.955 0-3.576-1.212-3.87-2.796a3.036 3.036 0 0 1-.676 1.4c-1.086-.672-3.528-2.475-3.178-4.896.015-.099.033-.199.058-.3a.305.305 0 0 0-.066-.269.306.306 0 0 0-.53.128c-.008.03-.014.06-.02.09-.326 1.524.255 3.056 1.683 4.438.57.552 1.164.975 1.604 1.254-.24.2-.51.373-.805.516l-.028-.015c-2.66-1.269-4.11-2.957-4.188-4.882-.055-1.349.585-2.729 1.775-3.936.584-.592 1.3-1.142 2.13-1.626a11.118 11.118 0 0 0 1.75-1.229c.976-.858 1.468-1.734 1.465-2.616a2.37 2.37 0 0 0-.259-1.063c.53.022 1.06.056 1.588.102.339.275.817.771.876 1.422.06.664-.32 1.387-1.127 2.155a8.17 8.17 0 0 1-.402.358c-1.336 1.11-2.054 2.31-2.146 3.574-.02.273-.011.55.027.83.323 2.315 2.756 4.635 6.873 6.573a4.054 4.054 0 0 1-.998.522zm16.571-5.85l-.906 1.148c-3.668-3.527-9.49-6.29-13.386-7.207a.474.474 0 0 0-.218.924c.648.152 1.35.358 2.088.61 3.018 1.032 6.617 2.856 9.432 5.11.53.422 1.03.86 1.495 1.312l-1.066 1.35c-4.648-3.707-8.695-5.563-14.206-6.549a.475.475 0 0 0-.167.934c.643.115 1.262.241 1.864.38 4.085.942 7.31 2.478 10.91 5.193.334.251.671.514 1.013.786l-1.402 1.778c-1.061-.448-1.85-1.29-2.093-2.3-.364 1.51-1.944 2.647-3.84 2.647-1.851 0-3.403-1.087-3.812-2.547-.086.308-.223.6-.404.868-3.916-1.776-6.311-3.899-6.582-5.844-.159-1.141.415-2.264 1.706-3.339 1.403-1.167 2.058-2.356 1.947-3.533-.04-.419-.174-.79-.353-1.11a31.306 31.306 0 0 1 8.502 2.445c3.69 1.668 6.955 4.063 9.478 6.943zM26.28 0c.324.001.625.146.828.398l6.691 8.297 2.74-1.805c.278-.235.619-.324.945-.243.346.085.617.348.746.718l2.997 8.97-.002.007.128.378.004.003.286.856.17.118.67.464.585.43.061.046.082.06a27.845 27.845 0 0 1 4.44 4.223l.35.419-14.655 18.585-5.991 7.599-3.64 4.616-3.491-4.632-5.765-7.647L0 22.68l.368-.412a27.546 27.546 0 0 1 2.9-2.792l.008.012.616-.509c.064-.059.13-.111.198-.163a.671.671 0 0 1 .059-.175l.253-.503.064-.14.51-.998 6.67-13.248c.163-.3.45-.5.787-.548.323-.047.64.053.878.274l5.778 4.708 6.36-7.793c.203-.25.505-.393.826-.393z"></path></svg></g></svg>